<?xml version="1.0" standalone="no"?>
<!DOCTYPE svg PUBLIC "-//W3C//DTD SVG 20010904//EN"
 "http://www.w3.org/TR/2001/REC-SVG-20010904/DTD/svg10.dtd">
<svg version="1.0" xmlns="http://www.w3.org/2000/svg"
 width="512.000000pt" height="512.000000pt" viewBox="0 0 512.000000 512.000000"
 preserveAspectRatio="xMidYMid meet">
<metadata>
Created by potrace 1.11, written by Peter Selinger 2001-2013
</metadata>
<g transform="translate(0.000000,512.000000) scale(0.100000,-0.100000)"
fill="#000000" stroke="none">
<path d="M3552 5095 c-122 -46 -331 -163 -380 -212 -7 -7 -32 -26 -55 -43 -63
-45 -195 -184 -265 -278 -249 -336 -374 -764 -373 -1282 0 -182 10 -343 27
-431 l5 -25 -253 0 c-259 1 -390 -6 -544 -29 -380 -56 -745 -185 -1039 -368
-81 -50 -239 -164 -298 -215 -147 -126 -347 -361 -369 -434 -27 -91 48 -182
140 -172 52 6 85 31 131 98 22 33 68 90 100 126 l58 64 729 -729 728 -728 -59
-54 c-33 -29 -90 -75 -128 -101 -111 -77 -133 -162 -63 -237 43 -46 100 -54
161 -25 152 74 419 346 586 600 167 252 322 631 372 910 24 130 32 181 43 275
3 33 9 69 11 80 3 11 6 155 8 320 1 290 2 300 21 298 10 -1 53 -4 94 -8 41 -3
100 -8 130 -10 130 -11 361 -7 525 9 94 10 257 41 365 70 400 107 736 339 962
662 87 125 166 286 189 388 11 49 10 60 -5 93 -23 50 -59 75 -115 81 -75 6
-108 -23 -153 -138 -42 -105 -78 -180 -87 -180 -3 0 -296 289 -649 643 l-643
644 78 35 c43 20 96 41 118 47 113 31 162 115 119 206 -33 71 -117 90 -222 50z
m308 -1235 c369 -368 670 -673 669 -677 -1 -14 -121 -108 -209 -166 -90 -58
-195 -110 -298 -147 l-64 -23 -556 556 -557 557 23 67 c35 98 88 207 147 298
58 89 152 205 166 205 5 0 311 -301 679 -670z m-705 -710 l386 -385 -58 -6
c-64 -6 -466 -3 -498 4 -11 3 -55 8 -98 12 -43 4 -84 13 -91 21 -8 7 -17 48
-21 91 -5 43 -10 89 -12 103 -12 86 -10 559 3 548 2 -2 177 -176 389 -388z
m-730 -604 c60 -4 110 -8 112 -9 5 -5 16 -225 16 -317 0 -108 -12 -361 -18
-370 -2 -3 -6 -33 -10 -66 -13 -134 30 -164 -440 306 -231 231 -413 420 -405
421 8 0 24 2 35 4 18 4 73 11 150 21 17 2 98 7 180 10 83 4 151 7 152 8 3 2
109 -2 228 -8z m-586 -709 l569 -569 -25 -61 c-13 -34 -29 -74 -35 -90 -32
-88 -211 -407 -228 -407 -3 0 -322 317 -710 705 -667 667 -703 705 -685 719
44 33 225 136 300 172 73 34 237 102 242 100 2 -1 259 -257 572 -569z"/>
</g>
</svg>
